<svg xmlns="http://www.w3.org/2000/svg" viewBox="0 0 544.4 356"><title>Artboard 1</title><path d="M120,161.85H72.74L51.42,108.57H43.7v53.28H0V2.78H58.21c26.06,0,60.72,5.28,60.72,50.91v4c0,22.3-8,37-24.46,44.75Zm-44.51-4h38.45l-24.67-57.5,1.84-.79c16.06-6.86,23.86-20.57,23.86-41.9v-4c0-41.58-30.31-46.91-56.72-46.91H4V157.85H39.7V104.57H54.13ZM59.88,76H39.7V35.39H59.88c12.38,0,18.92,6.74,18.92,19.5v1.59C78.81,69.23,72.26,76,59.88,76ZM43.7,72H59.88c10,0,14.92-5.07,14.92-15.49V54.88c0-10.43-4.88-15.5-14.92-15.5H43.7Z" style="fill:#fff"/><path d="M197,164.64c-45.75,0-66.15-24.16-66.15-78.34v-8C130.81,24.16,151.21,0,197,0S263.1,24.16,263.1,78.34v8C263.1,140.47,242.7,164.64,197,164.64ZM197,4c-21.68,0-37.06,5.67-47,17.34-10.19,11.95-15.14,30.59-15.14,57v8c0,26.41,5,45.05,15.14,57,9.95,11.67,25.32,17.34,47,17.34S234,155,244,143.3c10.19-11.95,15.14-30.59,15.14-57v-8c0-26.41-5-45.05-15.14-57C234,9.67,218.64,4,197,4Zm1,128h-2.09c-22.86,0-24.78-23.61-24.78-45.74v-8c0-22.13,1.92-45.74,24.78-45.74H198c22.86,0,24.78,23.61,24.78,45.74v8C222.78,108.42,220.86,132,198,132ZM195.91,36.6c-15.15,0-20.78,11.31-20.78,41.74v8c0,30.43,5.63,41.74,20.78,41.74H198c15.15,0,20.78-11.31,20.78-41.74v-8c0-30.43-5.63-41.74-20.78-41.74Z" style="fill:#fff"/><path d="M339.73,164.64c-22.84,0-39-6.14-49.54-18.76s-15.56-32.08-15.56-59.58v-8c0-27.5,5.09-47,15.56-59.58S316.89,0,339.73,0c43.29,0,62.6,17.48,62.6,56.67v9.75h-43.7v-2c0-20.28-4.55-27.82-16.81-27.82h-2.09C322.17,36.6,319,50.66,319,78.34v8C319,114,322.17,128,339.73,128h2.09c4.16,0,16.81,0,16.81-21.86v-2h43.7V108C402.32,147.16,383,164.64,339.73,164.64ZM339.73,4c-42.83,0-61.1,22.23-61.1,74.34v8c0,52.11,18.27,74.34,61.1,74.34,41,0,58.53-15.69,58.6-52.46H362.59c-.41,11.33-4.54,23.86-20.77,23.86h-2.09C316.85,132,315,110.4,315,86.29v-8c0-24.1,1.89-45.74,24.78-45.74h2.09c17.54,0,20.58,14.08,20.79,29.82h35.71V56.67C398.32,19.75,380.8,4,339.73,4Z" style="fill:#fff"/><path d="M543.62,161.85H495.28l-25.65-57.07-8.67,12v45.09h-43.7V2.78H461V51.11L491.29,2.78H544.4L498.06,66Zm-45.75-4h39.42L493.42,65.6,536.51,6.78h-43L457,65V6.78h-35.7V157.85H457V115.47l13.48-18.63Z" style="fill:#fff"/><path d="M169.07,356h-43.7V294.35l.42-11.87L106.56,356h-44L43.29,282.49l.41,11.79V356H0V196.93H62.68l21.86,83.56,21.86-83.56h62.68Zm-39.7-4h35.7V200.93H109.48L84.54,296.29,59.59,200.93H4V352H39.7V294.35l-1-29.75,3.93-.58,23,88h37.87l23-88,3.93.58-1,29.82Z" style="fill:#fff"/><path d="M316.79,356h-46.6l-6.69-31.41H232.9L226.43,356H179.61l39.87-159.07h57.45l.38,1.51Zm-43.36-4h38.24L273.8,200.93H222.6L184.73,352h38.43l6.48-31.41h37.1ZM260.7,292h-25l10.54-49.73h3.91Zm-20.06-4h15.12l-7.56-35.67Z" style="fill:#fff"/><path d="M371.51,356h-43.7V196.93h43.7Zm-39.7-4h35.7V200.93h-35.7Z" style="fill:#fff"/><path d="M491.62,356H390.45V196.93h43.7V319.39h57.46Zm-97.16-4h93.16v-28.6H430.16V200.93h-35.7Z" style="fill:#fff"/></svg>